<svg xmlns="http://www.w3.org/2000/svg"><symbol id="brachiosaurus" viewBox="0 0 256 256"><path d="M58.8 167.1a31.9 31.9 0 0 0-7.7.9c0 .3.2.6.8 1a12.3 12.3 0 0 0 2 1l2.6 1 2.8.9 2.5.6 1.4.2h2.2l2.5-.4a13.4 13.4 0 0 0 2.4-.9A5 5 0 0 0 72 170a30.3 30.3 0 0 0-6.4-2.2 30.8 30.8 0 0 0-6.8-.7z"/><path d="M128.2 0A127.9 127.9 0 1 0 256 127.8 127.9 127.9 0 0 0 128.2 0zm83.3 70.5v.3a8.2 8.2 0 0 1-.1 1.4l-.3 2.2-.3 2.1c-.2.6-.2 1.1-.3 1.3l-.9 1.8-.6 2-.6 2.1a15.4 15.4 0 0 1-.8 1.9c-.5 1.1-1.1 2.1-1.6 3.1a14.3 14.3 0 0 0-1.6 3l-20.1 27.9a3.9 3.9 0 0 0-.2.6l-.3.2-.3.3-.4.5-1.7 2.3-2.1 2.9-2.2 3.3-2 3.2-1.4 3a8.6 8.6 0 0 0-.5 2.4c0 .3-.2.5-.2.7s.2.4.2.7c-.2 0-.3.2-.3.4s.1.4.3.4v10.2a1.9 1.9 0 0 1-.3 1l-.3 1.2a6.7 6.7 0 0 0-.6 1.2 3.4 3.4 0 0 0-.5 1.1v1.7c0 .1.1.2 0 .4s-.2.5-.4.8l-.7.8c-.2.3-.6.4-.6.5v.4s.7.2.8.4.9.3.9.4v2.8a22.5 22.5 0 0 1-.6 3.6c-.2 1.2-.6 2.3-.8 3.5s-.5 2.4-.6 3.5a22 22 0 0 0-.4 3.6q0 3.2.3 6.3a42.3 42.3 0 0 0 1.1 6.2 31.4 31.4 0 0 0 2.2 5.8 21.1 21.1 0 0 0 3.4 5.2 4.8 4.8 0 0 1-1.3.9 8.5 8.5 0 0 1-1.7.6l-1.7.5h-1.9l-1.1-.3-1.2-.2-.9-.2-.8-.2-.7-.3a1.8 1.8 0 0 1-.7-.5 2.4 2.4 0 0 1-.3-.7 27.7 27.7 0 0 0 .1-4.1 29.7 29.7 0 0 0-.3-4.2c-.1-1.5-.3-2.9-.5-4.3s-.4-2.8-.5-4.1a6.4 6.4 0 0 1-.2-.7 1.6 1.6 0 0 0-.3-.6c.1-1.1.1-2.3.2-3.6a28.2 28.2 0 0 0-.2-4.1 25.7 25.7 0 0 0-.6-4 9.4 9.4 0 0 0-1.4-3.4 3 3 0 0 0-1.4 1.8 17.3 17.3 0 0 0-.8 2.7 25 25 0 0 1-.5 2.9c-.2 1-.9 1.8-.9 2.4v7.6c0 2.8-.2 5.6-.1 8.3a79.1 79.1 0 0 0 .6 8.3l.4.3.8.6a2.7 2.7 0 0 1 .8.7c.2.2.4.4.4.6s-.3.5-.9.8l-1.8.9a9 9 0 0 1-2.1.8l-1.2.5h-.2l-4.8-2.7a.3.3 0 0 1-.2-.4v-.6c0-1.1-.1-2.2 0-3.1a28.1 28.1 0 0 0 .1-3 23.4 23.4 0 0 0-.3-3.8l-.6-3.7-.6-3.8c-.1-1.3-.2-2.6-.2-3.9s0-2.4.1-3.4l.3-2.8.6-2.8c.2-1 .4-2 .6-3.2a.8.8 0 0 0 0-.7 2.3 2.3 0 0 1-.1-.7 5.8 5.8 0 0 0-1.9.2l-1.9.5-1.9.6-1.9.5-1.4.2-1.1.2-1-.2h-2.9a46.4 46.4 0 0 1-5.3-.1h-7.7a4.3 4.3 0 0 0-2.4.8 46.9 46.9 0 0 1 0 5.3c0 1.7-.1 3.4-.1 5.1l-.3 5.1c0 1.7-.1 3.5-.1 5.2v1a8.5 8.5 0 0 0 0 1.6v2.6c0 .5.6 1.1 1.1 1.6l1.4 1.8a6.6 6.6 0 0 1 1.2 1.7 3.1 3.1 0 0 1 .5 1.8v.4a9.4 9.4 0 0 1-4.1.4c.1.5 0 .7-.2.8h-2.7l-2.3-.2a5.1 5.1 0 0 1-1.8-.9 1.9 1.9 0 0 1-.8-1.8 5.3 5.3 0 0 1 .1-1.3l.3-1.3a7.4 7.4 0 0 0 .4-1.4 6.1 6.1 0 0 0 .1-1.4 23.4 23.4 0 0 0-.3-3.8c-.2-1.2-.4-2.4-.7-3.6s-.5-2.7-.8-3.9a29.6 29.6 0 0 1-.7-4h-.4c-.2 0-.4.8-.5 1s-.3.5-.4.7l-.4.5-1.5 2.3a18.2 18.2 0 0 0-1.5 2.3 17.5 17.5 0 0 0-1.1 2.4 8.4 8.4 0 0 0-.4 2.7 4.1 4.1 0 0 0 .3 1.6l.8 1.6.7 1.1a1.5 1.5 0 0 1 .3.6.8.8 0 0 1-.4.7l-1 .5-1.3.3h-2.7l-1.7-.2a2 2 0 0 1-1.1-.3 2.2 2.2 0 0 1-.7-.9 10.3 10.3 0 0 1-.5-1.6 10.9 10.9 0 0 1-.5-1.7 4.5 4.5 0 0 1-.3-1.6 2.8 2.8 0 0 1 .4-1.5l.9-1.6L97 189a5.5 5.5 0 0 0 .8-1.5c.9-1.9 1.7-3.9 2.5-5.9s1.6-4 2.5-5.9l.4-.8.6-.7a2 2 0 0 0 .4-.8 1.9 1.9 0 0 0 .2-.8q0-.6-.3-.6h-1.3l-9.1 2.4c-.2.3-.7.4-1.3.6l-1.8.4-1.6.6a1.4 1.4 0 0 0-.7 1.1 1.2 1.2 0 0 0 .3.9 2.3 2.3 0 0 0 .7.7l.8.5.7.6-.4.5-1.2-.9-1.5-.8-1.5-.6-1.5-.3a13.1 13.1 0 0 0-3.8.6l-4 1.1-4.1 1.1a15.2 15.2 0 0 1-4.2.6 31.2 31.2 0 0 1-3.5-.4l-4.9-1.2c-1.8-.5-3.6-1-5.5-1.7a46.7 46.7 0 0 1-5-2.3 13.6 13.6 0 0 1-3.7-2.7 4.1 4.1 0 0 1-1.5-3 4.5 4.5 0 0 1 1.2-3.3 6.1 6.1 0 0 1 2.7-1.6c1.1-.4 2.3-.1 3.5-.2s2.4.4 3.4.4h4c.2 0 .6-.4 1.3-.3a19.5 19.5 0 0 1 2.3.2l2.6.3 2 .3a5.9 5.9 0 0 1 1.9.5l1.8.8 1.9.8a6.4 6.4 0 0 0 2 .3 8.8 8.8 0 0 0 4-1 25.7 25.7 0 0 0 4.1-2.6l4-3.1 3.2-2.8 1.9-1.2 1.9-1.1a10.9 10.9 0 0 0 1.7-1.3 6.1 6.1 0 0 0 1.5-1.7 33.5 33.5 0 0 0 2.7-4.5 20.7 20.7 0 0 1 2.7-4.5l1.3-1.3 1.5-1 1.7-.9 1.6-.9a30.7 30.7 0 0 0 3.6-2.7l3.5-2.9 3.4-3c1.1-1 2.2-2 3.4-2.9a20.8 20.8 0 0 1 3.8-2.2l4-1.9 2.5-1.3 2.5-1.3 2.6-1.1a10.7 10.7 0 0 1 2.7-.8l22.5-3.3a9.5 9.5 0 0 0 3.5-1.1 17.9 17.9 0 0 0 3.4-2.2 42 42 0 0 0 3.2-2.9l2.9-3.3 2.7-3.2 2.3-2.8 7.8-9.1.3-.2.6-.6.5-.5q.2-.3.3-.3l2-3.3h.3l.3-.3.4-.2.2-.2.5-.4c.2-.2.3-.3.3-.4l1.3-1.7a24.3 24.3 0 0 1 1.4-2l1.3-2a9.5 9.5 0 0 0 .9-1.7 8.8 8.8 0 0 0 .9-2l.7-2.2c.2-.7.5-1.4.8-2.2s1-1.5 1-2.2v-6.2a5.3 5.3 0 0 0-1.1-3.1 11.5 11.5 0 0 0-2.7-2.7 17.4 17.4 0 0 0-3.3-1.8 10.9 10.9 0 0 0-3.3-.7 27.9 27.9 0 0 0-5.8.7 12.4 12.4 0 0 0-5.2 2.7 9.2 9.2 0 0 0-1.4 1.4c-.5.6-1.1 1.2-1.6 1.9l-1.8 2-1.8 1.9-1.9 1.3a4.1 4.1 0 0 1-1.8.5 1.6 1.6 0 0 1-1.1-.5 1.4 1.4 0 0 1-.6-1.1v-.5l.2-.4c0-.3.1-.5.1-.8s.1-.5.2-.8V63a3.9 3.9 0 0 0-.2-1.6l-.6-1.4-.6-1.2a2.8 2.8 0 0 1-.3-1.3c.4 0 .7 0 .9-.2a1.6 1.6 0 0 0 .4-.7l.5-.7a1 1 0 0 1 .8-.6h2.8a1.3 1.3 0 0 0 1-.3 2.3 2.3 0 0 1 .7-.7h.4a.5.5 0 0 1 .2.4l.2.4c.1-.2.2-.3.4-.3l.7-.4 1.1-.7 1.3-.8 1.4-.8 1.1-.6.6-.4a13.5 13.5 0 0 1 2.1-1.3l1.8-.6a5.8 5.8 0 0 1 1.9-.2h6.5a3.3 3.3 0 0 0 1.5.5l1.5.4 1.6.3 1.5.5a14.7 14.7 0 0 1 4.6 3 18 18 0 0 1 3.2 4.2A21.8 21.8 0 0 1 211 63a20.1 20.1 0 0 1 .5 5.5v2.3z"/></symbol><symbol id="micropachycephalosaurus" viewBox="0 0 256 256"><path d="M132.9 151.6c-.3 0-.4.2-.4.6a.1.1 0 0 0-.1-.1.5.5 0 0 0-.5.5c0 .4.2.6.5.6s.4-.2.4-.6h.1c.4 0 .5-.1.5-.5s-.1-.5-.5-.5zm1.5-.8a2.4 2.4 0 0 0-.9.8h.3a2 2 0 0 0 1.1-.3 2.4 2.4 0 0 0 .9-.8h-.3a2 2 0 0 0-1.1.3zm3-2.6c-.2 0-.4.2-.4.6h-.1c-.3 0-.4.2-.4.6h-.2c-.3 0-.4.2-.4.6s.1.5.4.5a.5.5 0 0 0 .5-.5h.1c.3 0 .5-.2.5-.6a.6.6 0 1 0 0-1.2zm23.4-5.9a8.9 8.9 0 0 1-1.3 1.4 2.1 2.1 0 0 0 .9 1.1l1.1.2a2.4 2.4 0 0 0 1.4-.5 6.9 6.9 0 0 0 1.1-1.3l.8-1.4c.2-.6.3-1.2.5-1.2h-3.5c-.2 0-.5 1.1-1 1.7z"/><path d="M128.3.3a128 128 0 1 0 128 128 128 128 0 0 0-128-128zm96 76l-1.6.4H219a39.3 39.3 0 0 0-5.2 1.3 14.2 14.2 0 0 0-3.7 1.6 8.8 8.8 0 0 0-2.5 2.2 11.9 11.9 0 0 0-1.8 2.9c-.5 1.1-1 2.5-1.5 3.9l-1.6 5.1-1.2 3.5c-.4 1.1-.9 2.2-1.3 3.2a30 30 0 0 1-1.5 3.2l-1.7 3.2a48.6 48.6 0 0 1-2.7 4.1l-3 3.7-3.1 3.6c-1.1 1.2-2.1 2.5-3.2 3.8a11.1 11.1 0 0 0-1.3 2.7c-.3.9-.7 1.8-1 2.6a6.4 6.4 0 0 1-1.4 2.2 4.7 4.7 0 0 1-2.5 1.6 4 4 0 0 1-1.3.6l-2.1.7-2 .6-1.4.4c.3 1 .4 1.6.2 2a1.8 1.8 0 0 1-.9 1l-1.2.6a2 2 0 0 0-.9.9l-2.3 6.8a2.3 2.3 0 0 1-1 1.5 6.1 6.1 0 0 1-1.8.9 13.6 13.6 0 0 1-2 .2 10.9 10.9 0 0 1-1.9-.1h-2c-.3-.1-.4-.3-.4-.8s0-.3.1-.4l.2-.3.3-.3c0-.1.1-.2.1-.4-.1 0-.1-.1-.1-.2a27 27 0 0 0-3.4 1.7 31.3 31.3 0 0 0-3.4 2.1l-3.4 2.1a29 29 0 0 1-3.3 2l-.9.5a6.7 6.7 0 0 0-1.2.6 3.9 3.9 0 0 0-1 .8 1.3 1.3 0 0 0-.4 1v.6l1.8 1.6 2 1.7 2 1.7a9.4 9.4 0 0 0 2.2 1.2 7.5 7.5 0 0 0 1.8.7l1.9.5 1.9.7a4.6 4.6 0 0 1 1.7.9l1.4 1.4 1.1 1.5 1.1 1.5a6.4 6.4 0 0 0 1.5 1.3l1.7.6 2.1.7a5.2 5.2 0 0 1 1.8 1 2.1 2.1 0 0 1 .8 1.7.4.4 0 0 0-.1.3.3.3 0 0 1-.1.2l-5.6 1.2a3.5 3.5 0 0 0-1.1.3 2.1 2.1 0 0 1-1.2.3h-.6c-.1-.2-.5-.4-1.1-.7l-1.7-1a12.8 12.8 0 0 1-1.7-1 3.8 3.8 0 0 1-1.1-.8l-.2-.2-.3-.5-.4-.5-.2-.5-2.3-4.5-1.1-.5-1.9-.7-2.1-1-2.2-.9-1.8-.9-1.1-.6-2.8-1.5a27.5 27.5 0 0 1-2.6-2.2 10.5 10.5 0 0 1-2-2.7 7.2 7.2 0 0 1-1.1-3.2l-.6.3-.6.3-.8.7-1.8 1.1-2.1 1.5-2.1 1.3-1.8 1.1-1 .5-6 3.6a27.4 27.4 0 0 0-4.6 3.4 19.8 19.8 0 0 0-3.6 4.5c-.9 1.7-.7 4-2.4 6.7v1.6a8.8 8.8 0 0 0 1.2 4.4 6.9 6.9 0 0 0 2.1 2.6 7 7 0 0 0 2.7 1.4l2.5 1a7.5 7.5 0 0 1 2 1 5.3 5.3 0 0 1 .8 2h-13.4l-.2-.4-.3-.2h-.5l-.7-.3a2.8 2.8 0 0 1-1.2-1.6 7.9 7.9 0 0 1-.5-2.2 19.5 19.5 0 0 1 .2-2.3c0-.8.3-1.5.3-2.1v-1.4a4.7 4.7 0 0 1 .3-1.8c.2-.8.3-1.7.5-2.7s.5-2.1.8-3.2.6-2.2.8-3.2.5-1.9.7-2.7.3-1.4.4-1.7a10.3 10.3 0 0 1 .7-2.1 11.8 11.8 0 0 1 1-1.9 14 14 0 0 0 4.5-2.6 25.7 25.7 0 0 0 3.3-3.3l2.9-3.4a15 15 0 0 1 3.5-3.1 5.8 5.8 0 0 1 1.4-.8l2.1-.8 2.3-.9a11.4 11.4 0 0 0 2.2-1.2 7 7 0 0 0 1.6-1.3 2.5 2.5 0 0 0 .6-1.6v-1.3a1.7 1.7 0 0 0-.6-1.2l-.8-.3-1.2-.5-1.2-.6-.8-.3a7.3 7.3 0 0 1-2-1.3l-2.7-1.9-2.6-1.5a3.1 3.1 0 0 0-1.7-.6h-7.9c-6.1 0-12-.1-17.8.1s-11.8.2-17.8.2c-4.5 0-8.8-.1-13-.4s-8.4-.7-12.5-1.3a85.5 85.5 0 0 1-12.1-3 75.1 75.1 0 0 1-11.8-5.1l-1.5-.7-1.6-1-1.3-1.3a2.4 2.4 0 0 1-.5-1.6 5.9 5.9 0 0 1 2.1.4l2.4.9 2.2 1 1.5.7 4.7 1.6 5.1 1.5 5.2 1 4.9.3h26.7l2.6-.3 3.4-.6 3.6-.6 3.5-.6 2.7-.6 6.9-1.3c2.5-.5 4.9-1 7.4-1.7s5-1.3 7.3-2.1a44.8 44.8 0 0 0 6.7-2.8l3.9-1.8 3.8-1.6a26.7 26.7 0 0 1 4-1.3l4.2-1h4.6l1-.2 1.9-.4 3.4-.7 4.1-.9 4.1-.9c1.3-.3 2.4-1 3.3-1.2s1.6-.7 1.9-.7h6.6c2.8 0 5.4.5 8 .7a68.3 68.3 0 0 0 7.9.6 10.2 10.2 0 0 0 5.1-1.3 18.3 18.3 0 0 0 4.5-3.5 32.5 32.5 0 0 0 4-5c1.2-1.9 2.2-3.8 3.2-5.7a56.5 56.5 0 0 0 2.6-5.7l1.8-4.8c.4-1.2.8-2.4 1.1-3.5s.7-2.2 1-3.1l1.2-2.7a8.6 8.6 0 0 1 1.8-2 8.8 8.8 0 0 1 2.7-1.6 12.7 12.7 0 0 1 3.8-.8h3.1c.7 1.7 1.7.9 3 1.3s2.4 1.1 3.6 1.6a21.6 21.6 0 0 1 3 1.8 2.9 2.9 0 0 1 1.2 2.2 2 2 0 0 1-.4 1.4 2.7 2.7 0 0 1-1.2.4z"/></symbol><symbol id="velociraptor" viewBox="0 0 256 256"><path d="M128.3.3a128 128 0 1 0 128 128 128 128 0 0 0-128-128zM239 117.1h-7.4c-3.1 0-6.1-.2-9.2-.5l-9.2-.9-9.1-1c-3.1-.3-6.2-.4-9.3-.4a153 153 0 0 0-16.4.9 72.3 72.3 0 0 0-15.9 3.8l-30.7 11.1c-.5.1-.9.7-1.2 1.5a22.9 22.9 0 0 0-.9 2.8l-.6 2.9a8.5 8.5 0 0 1-.6 1.9 3.1 3.1 0 0 0 1.4 1.4l2.4 1.1 2.9 1.2a12.5 12.5 0 0 1 2.8 1.5 6.5 6.5 0 0 1 2.1 1.9 3.5 3.5 0 0 1 .8 2.4 1.6 1.6 0 0 1-.4 1.2 3.8 3.8 0 0 1-1.3.9l-1.6.8-1.6.8a4 4 0 0 0-1.2 1 2.5 2.5 0 0 0-.5 1.5 4 4 0 0 0 .8 2.6 10 10 0 0 0 1.9 1.6l2.4 1.3a7.6 7.6 0 0 1 2.2 1.8 16.8 16.8 0 0 1 2 3.4 18.2 18.2 0 0 1 1.3 3.7c.3 1.3.6 2.6.8 3.9s.1 2.7.2 4l1.4 1.3v7.2h.8l1.1.2.9.2.6.2a4.4 4.4 0 0 1 .1.9c0 .2-.1.5-.1 1a5.6 5.6 0 0 1-.4 1.2l-.6 1a1.1 1.1 0 0 1-.9.3h-5.2c-.2 0-.5-.6-1-.9l-1.5-.8-1.6-.8c-.5-.3-.9-.9-1.2-.9h-6.2a4.7 4.7 0 0 1 .7-2.9 4.1 4.1 0 0 1 1.6-1.6 8.1 8.1 0 0 1 2.2-.7l2.1-.3a4.9 4.9 0 0 0 1.6-.6 1.4 1.4 0 0 0 .7-1.4v-.3a.4.4 0 0 0-.1-.3 8.3 8.3 0 0 0-.8-1.8l-1.3-2.5-1.5-2.4-1.6-1.9-1.3-.8-1.9-.9-1.7-1.1a1.7 1.7 0 0 1-1-1.1 16.6 16.6 0 0 1-.9-2.9 25.5 25.5 0 0 0-1.1-3.3 8.1 8.1 0 0 0-1.8-2.6 3.8 3.8 0 0 0-2.9-1 20.6 20.6 0 0 0-6 .8 22.5 22.5 0 0 0-5.8 2.2 29.8 29.8 0 0 0-5 3.5 21.7 21.7 0 0 0-4 4.6l-.3.2h-.2v-.2c-.1 0-.2-.1-.2-.3a6.4 6.4 0 0 1-.2-.7 1.4 1.4 0 0 0-.2-.6.4.4 0 0 0-.1-.3h-.3a1.6 1.6 0 0 0-1.1.5 3.6 3.6 0 0 0-.8 1.2l-.9 1.3a2.7 2.7 0 0 1-.8 1 5.2 5.2 0 0 1-.7-1.6c0-.5-.1-1-.1-1.7a13.5 13.5 0 0 1 .4-2.9l.9-2.8a27.7 27.7 0 0 0 1-2.6c.2-1 .4-2.8.4-2.8h-5c0-1.7.2-1.8.6-2.4a12.1 12.1 0 0 1 1.6-1.6 14.5 14.5 0 0 1 2.2-.9l2.1-.3 3 .2 3 .5 2.9.5 2.9.2h2.4a2.6 2.6 0 0 0-1.7-1.4 10.9 10.9 0 0 0-2.6-.4l-2.7-.2c-.9-.1-1.6.1-2.2-.2l-3.9-2.2h-.3a17.4 17.4 0 0 0-3.2-.1 11.3 11.3 0 0 1-3.2.2 7.3 7.3 0 0 1-3-.7l-2.6-1.4-2.7-1.4a5 5 0 0 0-2.9-.6v6.1h1.6l1-.4.9-.5a3.5 3.5 0 0 1 .9-.6l.6-.2v2.8l2-.7c0 .1.2.3.3.5a4.3 4.3 0 0 0 .1.5 5.6 5.6 0 0 1-1.3 3.9 23.6 23.6 0 0 1-3.3 2.9 20.9 20.9 0 0 0-4.6-1.2l-4.9-.7v-7.8l-1.7.5-2.1 1-1.9 1.2c-.5.4-.9.8-.9 1.2v6.9a9.3 9.3 0 0 0 2.9-.3 5.3 5.3 0 0 0 1.9-.6l1.2-.6 1.3-.2h.3a2.2 2.2 0 0 1 .3.8c.2.3.3.8.5 1.2s.3.9.4 1.3a4.8 4.8 0 0 1-.3 2.9 5.2 5.2 0 0 1-1 1.8 7 7 0 0 1-1.6 1.4 4.1 4.1 0 0 1-1.9.5h-1l-3-.5a24.1 24.1 0 0 1-3.7-.7 11.9 11.9 0 0 1-3.2-1.2 2.7 2.7 0 0 1-1.5-2.1v-12.2l.9-.9a20.2 20.2 0 0 0 1.9-1.6l2.4-2.2a18.8 18.8 0 0 0 2.4-2.5 21.1 21.1 0 0 0 1.8-2.7 5.6 5.6 0 0 0 .8-2.6 3.9 3.9 0 0 0-1.2-2.8 14.2 14.2 0 0 0-2.8-2l-3.3-1.5-2.6-.9-1.3-9.1a13.1 13.1 0 0 0-.6-2.7 11.7 11.7 0 0 0-1.1-2.8 7.9 7.9 0 0 0-1.8-2.2 4.6 4.6 0 0 0-2.7-.9 12.5 12.5 0 0 0-3.6.5L48 115l-1.6 1.1-2.6 1.5-3 1.7c-1 .7-2 1.2-3 1.8a27.1 27.1 0 0 0-2.5 1.7c-.8.4-1.3 1.1-1.7 1.1h-1l-1.7-.2-2.1-.4a4.7 4.7 0 0 1-1.4-.8c-.5-.3-.4-.8-.4-1.4v-1.9c0-.6-.2-.9.1-.9h1.6c0-.1-.1-.2 0-.4s.1-.6.1-.9a3.1 3.1 0 0 0 .2-.8c.1-.3.1-.5 0-.5a2.4 2.4 0 0 0-.8-.9l-.9-.5-.7-.6a2.3 2.3 0 0 1-.3-1.3 2.7 2.7 0 0 1 .3-1.2 4.1 4.1 0 0 1 .7-1.1c.3-.4.2-.7.6-.9l.8-.4v.8a4.7 4.7 0 0 0 .6 1.5c.1.5.7.7 1.2.7a1.7 1.7 0 0 0 1.1-.4 5.8 5.8 0 0 0 1-1.2 10.4 10.4 0 0 0 .6-1.6c.2-.5.3.3.3-1.4H21.2a1.4 1.4 0 0 1-.9-.5l-1.1-.7-.9-.8a1.3 1.3 0 0 1-.4-1A4.6 4.6 0 0 1 19 101a6.8 6.8 0 0 1 2.6-1.8 11.9 11.9 0 0 1 3.2-1l2.9-.9 2.2-.9 3.4-1.6 3.4-1.6a8.9 8.9 0 0 1 2.2-1h13.7a7.6 7.6 0 0 1 3.9 1 12.2 12.2 0 0 1 3.1 2.5 29.1 29.1 0 0 1 2.6 3.3 40.5 40.5 0 0 0 2.3 3.4 13.9 13.9 0 0 0 2.3 2.5 3.3 3.3 0 0 0 2.5 1 .7.7 0 0 0 .7-.4 1.3 1.3 0 0 1 .9-.4 2.8 2.8 0 0 1 1.5.4l1.5.7 1.6.7a4.1 4.1 0 0 0 1.6.3l4.1-.2 4.1-.5 4.2-.4a27.3 27.3 0 0 1 4.1-.3c2.6 0 5 .2 7.3.4a39.9 39.9 0 0 1 7.3 1.6 53.8 53.8 0 0 1 5.1 2l5.1 2.2a55.2 55.2 0 0 0 5.3 1.8 25.1 25.1 0 0 0 5.5.7h2.6l12.9-2.8 12.9-2.3c4.4-.6 8.7-1.1 13.1-1.5s8.7-.6 13.2-.6h8.9c1.8.1 3.5.7 5 .9l36.7 7.3h11.8c-.8 0-1.9 1.1-3.2 1.4a13.8 13.8 0 0 1-4.1.2z"/></symbol></svg>